<svg version="1.2" xmlns="http://www.w3.org/2000/svg" viewBox="0 0 2425 2658" width="2425" height="2658">
	<title>Picture1-svg</title>
	<defs>
		<clipPath clipPathUnits="userSpaceOnUse" id="cp1">
			<path d="m0 0h2425v2658h-2425z"/>
		</clipPath>
	</defs>
	<style>
		.s0 { fill: #666666 } 
	</style>
	<g id="Clip-Path" clip-path="url(#cp1)">
		<g id="Layer">
			<path id="Layer" fill-rule="evenodd" class="s0" d="m1679.6 899.3c5.1 1 9.2 8 5.2 11.4l-210.9 182c-3.5 3 5.7 13.8 9.3 10.8l210.2-178.2c8.7-7.4 18.7 6.2 11.7 12.2l-209 181.1c-3.4 3 5.5 13.5 9 10.5l211.1-178.6c8.2-7 17.6 7.1 10.4 13.3l-208.5 180.5c-3.6 3.1 5.6 13.8 9.2 10.8l211-179.6c6.6-5.7 15.7 5.2 10.5 9.9l-208.5 184.9-24.2 20.7c-14.2 12.1-33.8 6.3-50.1 1-57.2-18.7-533.7 560-610.9 501-8-6.2-8.1-17.1-5.8-28 21-99.1 586.2-471.2 578.7-517.4-2.7-16.9-5.4-37.3 8.7-49.4l24.2-20.7 213.5-176.7c1.7-1.4 3.5-1.8 5.2-1.5z"/>
		</g>
	</g>
</svg>