<svg version="1.2" xmlns="http://www.w3.org/2000/svg" viewBox="0 0 2425 2658" width="2425" height="2658">
	<title>Picture1-svg</title>
	<defs>
		<clipPath clipPathUnits="userSpaceOnUse" id="cp1">
			<path d="m0 0h2425v2658h-2425z"/>
		</clipPath>
	</defs>
	<style>
		.s0 { fill: #666666 } 
	</style>
	<g id="Clip-Path" clip-path="url(#cp1)">
		<g id="Layer">
			<path id="Layer" fill-rule="evenodd" class="s0" d="m1793.6 982.8c4.9 0.3 9.5 1.1 13.7 2.7 5.5 2.2 10.2 5.7 13.6 11.2 6.1 10 4.7 17.8-3.7 25.5-29.3 26.8-101.1 60.1-138.4 81.3-127.5 72.5-313.8 175.2-432.7 243.3-9.5 0.5-31.1 7.2-53.2 19.7-80.5 45.2-332.2 251.5-381.2 195.3-6.7-7.6-4.6-18.3-0.1-28.6 28-64.8 285.3-170.7 354.1-210.5 19-12.9 32.5-22.1 44.8-41.4 58.4-42 120.8-77.6 181.8-115.7 55.5-34.6 107.9-64.1 162.8-94.2 69.7-38.3 118.8-58.9 196.7-81.8 11-3.2 27.3-7.6 41.8-6.8z"/>
		</g>
	</g>
</svg>