<svg version="1.2" xmlns="http://www.w3.org/2000/svg" viewBox="0 0 2425 2658" width="2425" height="2658">
	<title>Picture1-svg</title>
	<defs>
		<clipPath clipPathUnits="userSpaceOnUse" id="cp1">
			<path d="m0 0h2425v2658h-2425z"/>
		</clipPath>
	</defs>
	<style>
		.s0 { fill: #666666 } 
	</style>
	<g id="Clip-Path" clip-path="url(#cp1)">
		<g id="Layer">
			<path id="Layer" fill-rule="evenodd" class="s0" d="m1497.9 850.2c106.7-0.2 181.1 141.7 26.9 307.3-15.9 17-35.7 31.6-62 43.7-34.7 16-45.5 14.3-83.9 14.5-66 0.3-320.3 683.3-414.7 650.6-9.6-3.4-13-13.7-14.3-24.8-9.9-89.4 396.4-623.1 379.5-655.8-17.7-34-24.2-42.8-26.2-81-1.5-28.9 2.3-53.3 10-75.2 44.9-128 120.6-179.2 184.7-179.3z"/>
		</g>
	</g>
</svg>