<svg width="2425" height="2658" xmlns="http://www.w3.org/2000/svg" xmlns:xlink="http://www.w3.org/1999/xlink" xml:space="preserve" overflow="hidden"><defs><clipPath id="clip0"><rect x="4" y="4" width="2425" height="2658"/></clipPath></defs><g clip-path="url(#clip0)" transform="translate(-4 -4)"><path d="M1869.86 1078.16C1976.6 1078 2051 1219.92 1896.8 1385.47 1880.95 1402.52 1861.14 1417.13 1834.83 1429.21 1800.09 1445.2 1789.26 1443.55 1750.95 1443.71 1684.86 1444 1430.59 2127 1336.23 2094.28 1326.65 2090.93 1323.16 2080.62 1321.94 2069.48 1312 1980.08 1718.32 1446.38 1701.37 1413.72 1683.74 1379.73 1677.24 1370.9 1675.23 1332.67 1673.73 1303.77 1677.48 1279.45 1685.19 1257.49 1730.13 1129.5 1805.81 1078.26 1869.86 1078.16Z" fill="#666666" fill-rule="evenodd" fill-opacity="1"/><path d="M2233.6 1311.31C2238.71 1312.25 2242.79 1319.27 2238.83 1322.69L2027.93 1504.67C2024.35 1507.74 2033.55 1518.5 2037.15 1515.45L2247.4 1337.28C2256.07 1329.94 2266.1 1343.5 2259.14 1349.53L2050.14 1530.63C2046.66 1533.64 2055.62 1544.11 2059.13 1541.14L2270.18 1362.47C2278.36 1355.55 2287.84 1369.59 2280.62 1375.84L2072.12 1556.31C2068.53 1559.38 2077.74 1570.13 2081.32 1567.07L2292.26 1387.46C2298.94 1381.78 2308 1392.73 2302.76 1397.37L2094.31 1582.25 2070.08 1602.98C2055.95 1615.08 2036.29 1609.26 2019.97 1603.98 1962.79 1585.35 1486.25 2164 1409.11 2104.99 1401.07 2098.81 1401 2087.94 1403.34 2076.97 1424.25 1977.92 1989.45 1605.85 1982.01 1559.62 1979.28 1542.68 1976.58 1522.33 1990.72 1510.23L2014.94 1489.5 2228.4 1312.76C2230.07 1311.36 2231.89 1311 2233.6 1311.31Z" fill="#666666" fill-rule="evenodd" fill-opacity="1"/><path d="M2395.63 1657.78C2400.47 1658.05 2405.12 1658.88 2409.3 1660.51 2414.83 1662.67 2419.53 1666.21 2422.88 1671.67 2429 1681.71 2427.57 1689.49 2419.17 1697.2 2389.95 1723.99 2318.12 1757.34 2280.82 1778.54 2153.26 1851.03 1967.03 1953.66 1848.13 2021.83 1838.56 2022.25 1817 2029.05 1794.93 2041.45 1714.43 2086.71 1462.74 2293 1413.66 2236.81 1407 2229.17 1409.1 2218.51 1413.57 2208.24 1441.62 2143.45 1698.91 2037.49 1767.68 1997.66 1786.73 1984.8 1800.18 1975.59 1812.54 1956.31 1870.92 1914.3 1933.3 1878.69 1994.35 1840.62 2049.82 1805.99 2102.24 1776.47 2157.05 1746.4 2226.83 1708.1 2275.87 1687.47 2353.75 1664.61 2364.8 1661.36 2381.11 1657 2395.63 1657.78Z" fill="#666666" fill-rule="evenodd" fill-opacity="1"/><path d="M501.335 9.50192C516.777 9.57338 532.193 10.3803 547.527 11.9169 578.215 14.9909 608.571 20.9852 638.14 29.8539L677 43.5937 677 196.685 669.327 193.047C636.434 179.367 601.833 170.586 566.696 166.829 554.983 165.577 543.21 164.884 531.42 164.753 448.893 163.838 365.562 190.503 296.317 246.338 217.181 310.146 171.403 399.977 161.378 493.63 151.358 587.278 177.094 684.744 240.941 763.837 304.797 842.938 394.679 888.683 488.376 898.693 546.951 904.955 607.015 897.257 663.146 875.026L677 868.723 677 1837.92 659.224 1820.49C660.054 1821.46 660.893 1822.4 661.724 1823.36L677 1838.14 677 1871 637.329 1832.49C622.444 1816.86 608.058 1800.5 594.24 1783.39 427.657 1577.04 430.161 1500.27 432.94 1414.71 436.27 1312.11 440.044 1196.21 115.889 794.663 32.8819 691.844 0 564.651 13.9278 442.146 27.8556 319.72 88.5563 202.005 192.728 118.018 283.874 44.5252 393.24 8.99993 501.335 9.50192Z" fill="#C1272D" fill-rule="evenodd" fill-opacity="1"/><path d="M677 44 681.844 45.7138C753.473 75.0494 818.764 122.211 870.614 186.486 1194.59 588.116 1308.67 608.947 1409.67 627.379 1493.89 642.764 1569.44 656.562 1735.94 862.953L1771 910.294 1771 953.793 1760.27 936.653C1759.52 935.648 1758.78 934.64 1758.02 933.641L1771 954.089 1771 1000.42 683.403 1878 677 1871.78 677 1838.92 694.765 1856.12 677 1838.69 677 869.298 696.299 860.511C718.023 849.282 738.945 835.707 758.718 819.752 837.815 755.928 883.567 666.079 893.573 572.406 903.587 478.752 877.874 381.257 814.055 302.144 782.149 262.59 743.736 231.374 701.594 208.795L677 197.123 677 44Z" fill="#C1272D" fill-rule="evenodd" fill-opacity="1"/><path d="M1771 910 1774.73 915.14C1786.61 932.967 1797.68 951.128 1808 969.555L1771 1000 1771 953.733 1783.71 974.152 1771 953.437 1771 910Z" fill="#C1272D" fill-rule="evenodd" fill-opacity="1"/><path d="M1783 974C1775.18 960.129 1766.72 946.512 1758 933 1758.73 934.002 1759.44 935.013 1760.17 936.019 1768.17 948.525 1775.78 961.182 1783 974Z" stroke="#C1272D" stroke-width="7.81476" stroke-linecap="butt" stroke-linejoin="miter" stroke-miterlimit="1.27" stroke-opacity="1" fill="none" fill-rule="evenodd"/><path d="M892.984 572.134C882.978 665.8 837.222 755.643 758.118 819.464 679.019 883.28 581.534 909 487.859 898.979 394.206 888.969 304.367 843.217 240.541 764.105 176.724 685.002 151 587.522 161.015 493.861 171.036 400.195 216.792 310.352 295.891 246.536 374.99 182.715 472.48 157 566.141 167.016 659.794 177.036 749.643 222.787 813.459 301.89 877.285 380.998 903 478.487 892.984 572.134Z" stroke="#C1272D" stroke-width="7.81476" stroke-linecap="butt" stroke-linejoin="miter" stroke-miterlimit="1.27" stroke-opacity="1" fill="none" fill-rule="evenodd"/><path d="M661.46 1823.88C660.643 1822.92 659.817 1821.97 659 1821 670.409 1833.07 682.022 1844.83 694 1856 682.92 1845.67 672.053 1834.99 661.46 1823.88Z" stroke="#C1272D" stroke-width="7.81476" stroke-linecap="butt" stroke-linejoin="miter" stroke-miterlimit="1.27" stroke-opacity="1" fill="none" fill-rule="evenodd"/><path d="M1735.17 862.941C1568.71 656.547 1493.17 642.749 1408.98 627.365 1308 608.931 1193.94 588.101 870.04 186.466 787.098 83.6246 669.755 24.5943 547.097 12.2946 424.526 0 296.663 34.4088 192.577 118.419 88.4868 202.424 27.8338 320.164 13.9169 442.617 0 565.148 32.8561 692.368 115.798 795.21 439.698 1196.84 435.927 1312.76 432.6 1415.39 429.823 1500.96 427.322 1577.75 593.774 1784.15 621.388 1818.38 651.274 1849.59 682.87 1878L1808 969.922C1786.93 933.015 1762.78 897.176 1735.17 862.941Z" stroke="#C1272D" stroke-width="7.81476" stroke-linecap="butt" stroke-linejoin="miter" stroke-miterlimit="1.27" stroke-opacity="1" fill="none" fill-rule="evenodd"/><path d="M677 1951 2123 1951C2110.62 2027.83 2087.57 2100.85 2055.31 2168.2 1997.56 2320.48 1862.33 2421.76 1831.22 2445.58L1905.07 2445.58 1905.07 2658 916.701 2658 916.701 2445.58 968.798 2445.58C937.694 2421.76 908.341 2395.57 881.202 2367.02 866.438 2351.49 765.49 2222.59 743.324 2165.33 711.775 2098.78 689.197 2026.74 677 1951Z" fill="#C1272D" fill-rule="evenodd" fill-opacity="1"/><path d="M677 1951C689.197 2026.74 711.775 2098.78 743.324 2165.33 765.49 2222.59 866.438 2351.49 881.202 2367.02 908.341 2395.57 937.694 2421.76 968.798 2445.58L916.701 2445.58 916.701 2658 1905.07 2658 1905.07 2445.58 1831.22 2445.58C1862.33 2421.76 1997.56 2320.48 2055.31 2168.2 2087.57 2100.85 2110.62 2027.83 2123 1951L677 1951Z" stroke="#C1272D" stroke-width="7.81476" stroke-linecap="butt" stroke-linejoin="miter" stroke-miterlimit="1.27" stroke-opacity="1" fill="none" fill-rule="evenodd"/><path d="M333.978 525.537C350.324 527.074 366.086 534.874 377.391 548.572 400 575.971 396.214 616.586 368.932 639.289 341.655 662 301.214 658.193 278.605 630.797 256 603.403 259.782 562.787 287.064 540.076 300.702 528.725 317.632 524 333.978 525.537Z" fill="#000000" fill-rule="evenodd" fill-opacity="1"/><path d="M333.399 531.392C348.156 532.785 362.386 539.85 372.589 552.258 393 577.074 389.581 613.865 364.958 634.432 340.332 655 303.822 651.554 283.411 626.738 263 601.922 266.419 565.132 291.046 544.564 303.357 534.281 318.642 530 333.399 531.392Z" fill="#1D1D1D" fill-rule="evenodd" fill-opacity="1"/><path d="M276.468 560.958C284.219 560 292.255 562.929 297.611 569.517 306 579.845 304.597 595.159 294.472 603.716 285.855 611 273.742 610.981 265.139 604.475 262 590.68 263.33 576.182 268.922 563.221 271.332 562.03 273.884 561.278 276.468 560.958Z" fill="#FFFFFF" fill-rule="evenodd" fill-opacity="1"/><path d="M618.522 289.537C634.982 291.074 650.855 298.873 662.239 312.57 685 339.971 681.192 380.586 653.721 403.289 626.254 426 585.532 422.197 562.766 394.797 540 367.402 543.813 326.787 571.284 304.08 585.015 292.726 602.062 288 618.522 289.537Z" fill="#000000" fill-rule="evenodd" fill-opacity="1"/><path d="M617.94 296.381C632.812 297.763 647.152 304.771 657.436 317.08 678 341.698 674.559 378.194 649.742 398.597 624.925 419 588.137 415.582 567.564 390.965 547 366.347 550.446 329.851 575.258 309.448 587.667 299.246 603.069 295 617.94 296.381Z" fill="#1D1D1D" fill-rule="evenodd" fill-opacity="1"/><path d="M561.469 325.938C569.218 325 577.255 327.872 582.607 334.331 591 344.456 589.597 359.465 579.473 367.859 570.857 375 558.741 374.982 550.139 368.603 547 355.079 548.329 340.865 553.926 328.154 556.335 326.986 558.886 326.25 561.469 325.938Z" fill="#FFFFFF" fill-rule="evenodd" fill-opacity="1"/><path d="M690 732 689.4 733 689.281 732.977 689 732.572 690 732Z" fill="#E6422E" fill-rule="evenodd" fill-opacity="1"/><path d="M689.124 732.136 690 732.795 689.315 733C689.16 732.611 689.286 732 689 732.256L689.124 732.136Z" fill="#E6422E" fill-rule="evenodd" fill-opacity="1"/><path d="M708.152 605C708.152 605 711.469 608.51 716.106 615.557 718.404 619.085 721.211 623.434 723.748 628.763 726.445 634.032 729.271 640.168 731.459 647.233 732.656 650.738 733.817 654.441 734.67 658.395 735.743 662.308 736.376 666.455 736.812 670.803 737.496 675.115 737.661 679.633 737.661 684.311 738 688.985 737.124 693.773 736.551 698.676 736.239 703.629 734.239 708.431 732.991 713.431 731.468 718.361 728.904 723.039 726.688 727.869 723.904 732.364 720.835 736.795 717.67 741.143L712.102 746.898 709.294 749.762 707.877 751.192 707.175 751.906 706.822 752.259 706.643 752.438 706.551 752.525C706.171 752.837 707.29 751.957 705.675 753.249L694.304 761.483C689.355 764.204 684.112 766.871 679.034 769.043 673.928 770.532 668.933 772.416 663.818 773.199 658.69 773.694 653.64 775 648.686 774.588 643.746 774.437 638.874 774.634 634.292 773.612 629.659 772.938 625.205 772.122 621.035 770.821 616.788 769.763 612.774 768.521 609.049 766.913 605.247 765.487 601.751 763.81 598.453 762.115 591.77 758.931 586.1 755.256 581.275 751.819 576.362 748.529 572.458 745.134 569.298 742.344 562.991 736.735 560 732.941 560 732.941 560 732.941 564.376 734.975 571.991 738.041 575.789 739.594 580.449 741.317 585.752 743.141 588.398 744.075 591.215 745.02 594.242 745.803 597.233 746.673 600.306 747.7 603.618 748.401 606.88 749.249 610.269 750.037 613.824 750.518 615.595 750.779 617.352 751.178 619.145 751.526 620.948 751.723 622.778 751.915 624.636 752.112 628.328 752.672 632.099 752.718 635.911 752.653 639.741 752.837 643.525 752.342 647.365 751.998 651.259 751.911 654.901 750.472 658.732 749.881 662.488 748.969 666.007 747.219 669.731 746.101 673.016 744.428 675.96 742.628 679.314 741.097L689.564 732.417 690.02 732.46 690.685 732.084 691.813 731.099 693.983 729.01 698.309 724.822C700.657 721.651 703.01 718.503 705.331 715.364 706.978 711.836 709.244 708.633 710.684 705.041 711.813 701.338 713.785 697.948 714.427 694.117 715.313 690.364 716.377 686.699 716.739 682.886 717.354 679.124 717.85 675.386 717.831 671.656 717.904 669.795 717.978 667.953 718.042 666.143 717.95 664.32 717.826 662.524 717.822 660.737 717.854 657.153 717.565 653.685 717.193 650.34 716.978 646.967 716.395 643.783 715.969 640.699 715.629 637.588 715.102 634.669 714.556 631.92 713.51 626.417 712.473 621.555 711.483 617.587 709.538 609.619 708.152 605 708.152 605Z" fill="#E6422E" fill-rule="evenodd" fill-opacity="1"/><path d="M811.681 409.468C820.676 410.349 828.594 413.915 834.159 420.286 849 437.275 841.478 467.777 817.365 488.409 793.252 509.045 761.677 512 746.841 495.011 732 478.023 739.522 447.524 763.63 426.888 778.704 413.991 796.689 408 811.681 409.468Z" fill="#F7AA9C" fill-rule="evenodd" fill-opacity="1"/><path d="M431.681 737.482C440.676 738.372 448.594 741.972 454.159 748.406 469 765.557 461.478 796.349 437.365 817.183 413.252 838.017 381.677 841 366.841 823.849 352 806.697 359.522 775.906 383.63 755.071 398.704 742.05 416.688 736 431.681 737.482Z" fill="#F7AA9C" fill-rule="evenodd" fill-opacity="1"/><path d="M469.621 115.896C531.442 118.149 592.489 137.62 645 173.645 628.98 199.509 611.878 224.519 593.822 248.681L458.257 188.911 570.416 278.836C492.691 375.224 398.634 456.487 292.143 519.268L236.123 443.989 272.372 530.637C235.467 551.31 197.164 569.825 157.573 586 98 454.252 128.032 291.986 243.831 194.015 309.375 138.568 390.137 113 469.621 115.896Z" fill="#C4522B" fill-rule="evenodd" fill-opacity="1"/><path d="M905.037 774.252C915.387 774.505 925.593 775.15 935.668 776.164 975.999 780.118 1014.37 789.473 1051.33 802.718 1088.26 816.078 1123.71 833.484 1157.23 856.235 1174 867.571 1190.23 880.405 1205.85 894.918 1213.66 902.195 1221.27 910.003 1228.68 918.365 1236.09 926.722 1243.32 935.569 1250 945.954 1238.21 949.652 1226.99 951.812 1215.94 953.483 1204.9 955.153 1194.05 956.275 1183.39 956.865 1162.1 958 1141.41 957.46 1121.27 955.423 1080.95 951.428 1042.57 942.082 1005.67 928.686 968.793 915.184 933.337 897.788 899.832 874.995 883.066 863.644 866.831 850.83 851.2 836.335 843.399 829.067 835.775 821.291 828.358 812.948 820.941 804.613 813.694 795.798 807 785.455 818.767 781.802 829.984 779.674 841.023 778.022 852.061 776.37 862.898 775.281 873.547 774.699 884.195 774.141 894.687 774 905.037 774.252Z" fill="#FFFFFF" fill-rule="evenodd" fill-opacity="1"/><path d="M735.285 824C745.32 831.158 753.806 838.801 761.807 846.601 769.807 854.391 777.235 862.364 784.149 870.497 797.928 886.778 810.006 903.586 820.587 920.86 841.848 955.377 857.624 991.607 869.437 1029.06 881.145 1066.56 888.733 1105.33 890.886 1145.81 892 1166.02 891.597 1186.72 889.479 1207.95 888.403 1218.57 886.79 1229.36 884.609 1240.32 882.432 1251.28 879.756 1262.4 875.522 1274 865.441 1266.86 856.923 1259.22 848.905 1251.44 840.886 1243.65 833.422 1235.69 826.502 1227.55 812.705 1211.28 800.613 1194.48 790.037 1177.2 768.817 1142.67 753.032 1106.44 741.365 1068.94 729.814 1031.4 722.212 992.619 720.105 952.14 719 931.916 719.389 911.225 721.479 890.007 722.551 879.387 724.136 868.611 726.295 857.652 728.453 846.697 731.092 835.591 735.285 824Z" fill="#FFFFFF" fill-rule="evenodd" fill-opacity="1"/><path d="M686 2016 2113 2016 2110.82 2027 688.489 2027 686 2016Z" fill="#FFFFFF" fill-rule="evenodd" fill-opacity="1"/><path d="M1765.25 896 1771 904.749 623.548 1825 617 1816.9 1765.25 896Z" fill="#FFFFFF" fill-rule="evenodd" fill-opacity="1"/></g></svg>